<svg version="1.1" xmlns="http://www.w3.org/2000/svg" viewBox="0 0 710 227" width="710" height="227">
  <!-- svg-source:excalidraw -->
  
  <defs>
    <style>
      @font-face {
        font-family: "Virgil";
        src: url("https://excalidraw.com/Virgil.woff2");
      }
      @font-face {
        font-family: "Cascadia";
        src: url("https://excalidraw.com/Cascadia.woff2");
      }
    </style>
  </defs>
  <rect x="0" y="0" width="710" height="227" fill="#ffffff"></rect><g stroke-linecap="round" transform="translate(10 72) rotate(0 31.5 25.999999999999986)"><path d="M1.92 -1.56 C21.8 -0.02, 41.44 1.2, 64.19 -0.92 M-0.79 0.97 C16.32 0.24, 35.14 0.87, 63.22 0.86 M64.53 1.33 C62.58 17.91, 62.45 36.99, 61.61 51.59 M63.92 -0.96 C63.78 17.38, 62.91 36.07, 63.78 51.79 M64.69 50.6 C48.3 50.5, 35.54 53.69, -1.17 50.7 M62.9 51.31 C40.44 50.83, 18.59 52.28, 0.03 52.32 M1.43 52.29 C0.55 34.79, 1.31 16.96, 1.66 -1.3 M0.51 52.77 C-0.14 38.45, 0.21 26.58, -0.16 0.14" stroke="#000000" stroke-width="1" fill="none"></path></g><g transform="translate(26 84) rotate(0 14.5 12.5)"><text x="0" y="18" font-family="Virgil, Segoe UI Emoji" font-size="20px" fill="#000000" text-anchor="start" style="white-space: pre;" direction="ltr">TX</text></g><g stroke-linecap="round" transform="translate(238 21) rotate(0 24 21.5)"><path d="M14.93 0.83 C19.24 -1.14, 25.06 0.09, 29.99 1.64 C34.93 3.2, 41.61 6.35, 44.56 10.14 C47.5 13.94, 48.19 19.88, 47.67 24.42 C47.15 28.96, 45.14 34.32, 41.44 37.39 C37.73 40.46, 30.74 42.68, 25.45 42.84 C20.15 43, 13.78 40.91, 9.65 38.35 C5.51 35.79, 1.79 31.72, 0.63 27.48 C-0.53 23.23, -0.31 17.2, 2.68 12.88 C5.66 8.55, 15.55 3.62, 18.53 1.53 C21.5 -0.57, 20.61 0.03, 20.51 0.32 M24.37 1.48 C29.3 1.44, 36.97 3.15, 40.78 5.9 C44.59 8.65, 46.36 13.57, 47.24 17.95 C48.12 22.33, 48.48 28.33, 46.07 32.21 C43.66 36.08, 37.73 39.76, 32.77 41.21 C27.81 42.66, 21.31 42.69, 16.32 40.91 C11.33 39.13, 5.39 34.39, 2.82 30.53 C0.24 26.67, -0.05 21.93, 0.86 17.75 C1.77 13.58, 4.51 8.46, 8.28 5.49 C12.06 2.52, 20.8 0.72, 23.51 -0.05 C26.22 -0.82, 24.18 0.56, 24.53 0.88" stroke="#000000" stroke-width="1" fill="none"></path></g><g stroke-linecap="round" transform="translate(307 65.5) rotate(0 24 21.5)"><path d="M29.74 1.15 C34.62 2.07, 41.05 5.49, 44.14 9.18 C47.24 12.87, 48.89 18.62, 48.3 23.28 C47.7 27.94, 44.3 33.73, 40.57 37.15 C36.83 40.57, 31.03 43.43, 25.88 43.8 C20.72 44.17, 13.78 42.27, 9.64 39.37 C5.49 36.48, 2.12 31, 1 26.44 C-0.12 21.89, 0.64 16.29, 2.93 12.06 C5.22 7.83, 9.79 2.63, 14.74 1.06 C19.7 -0.51, 29.21 2.23, 32.65 2.65 C36.09 3.08, 35.51 3.53, 35.4 3.61 M23.06 -1.16 C27.89 -1.72, 33.98 -0.01, 38.07 3.01 C42.16 6.03, 46.55 12.58, 47.62 16.95 C48.69 21.32, 46.65 25.07, 44.47 29.21 C42.29 33.35, 38.86 39.55, 34.53 41.77 C30.2 43.99, 23.29 44.09, 18.48 42.52 C13.68 40.96, 9.02 36.32, 5.72 32.37 C2.42 28.42, -1.43 23.23, -1.3 18.81 C-1.18 14.39, 2.46 9.12, 6.45 5.86 C10.44 2.61, 20.1 0.09, 22.62 -0.7 C25.14 -1.49, 21.74 0.74, 21.57 1.13" stroke="#000000" stroke-width="1" fill="none"></path></g><g stroke-linecap="round" transform="translate(164 75.5) rotate(0 24 21.5)"><path d="M29.91 0.25 C34.96 0.92, 40.41 4.14, 43.33 7.77 C46.25 11.4, 47.63 17.52, 47.43 22.04 C47.24 26.56, 45.37 31.57, 42.16 34.89 C38.95 38.21, 33.28 41.24, 28.18 41.96 C23.07 42.67, 15.99 41.36, 11.54 39.18 C7.09 37, 3.26 33.31, 1.48 28.88 C-0.29 24.44, -1.04 16.88, 0.87 12.58 C2.78 8.28, 7.52 4.88, 12.93 3.06 C18.35 1.25, 29.29 1.78, 33.34 1.7 C37.39 1.62, 37.62 2.36, 37.25 2.57 M18.89 0.02 C23.82 -1.23, 31.98 0.13, 36.48 2.38 C40.98 4.63, 44.17 9.11, 45.91 13.54 C47.65 17.98, 48.32 24.64, 46.91 28.98 C45.5 33.33, 41.84 37.12, 37.44 39.63 C33.04 42.14, 26.05 44.92, 20.52 44.04 C15 43.16, 7.84 38.22, 4.26 34.33 C0.69 30.45, -1.02 25.22, -0.91 20.73 C-0.8 16.24, 1.48 10.62, 4.92 7.4 C8.37 4.18, 17.07 2.63, 19.75 1.42 C22.43 0.2, 20.87 -0.17, 21 0.11" stroke="#000000" stroke-width="1" fill="none"></path></g><g stroke-linecap="round" transform="translate(200 155.5) rotate(0 24 21.5)"><path d="M24.82 -0.94 C29.94 -0.94, 36.42 2.91, 40.18 5.96 C43.93 9.02, 46.45 13.02, 47.36 17.41 C48.28 21.81, 48.13 28.41, 45.66 32.34 C43.18 36.27, 37.38 39.54, 32.52 40.98 C27.66 42.42, 21.42 42.58, 16.5 41 C11.59 39.43, 5.72 35.35, 3.01 31.55 C0.3 27.74, -0.76 22.63, 0.23 18.16 C1.22 13.68, 4.02 7.74, 8.94 4.69 C13.86 1.65, 25.17 0.18, 29.73 -0.1 C34.29 -0.39, 36.42 2.5, 36.28 2.97 M16.36 0.62 C20.89 -0.75, 29.46 -0.67, 34.21 1.35 C38.97 3.38, 42.53 8.82, 44.89 12.78 C47.25 16.73, 49.46 20.96, 48.36 25.11 C47.27 29.26, 42.46 34.63, 38.34 37.65 C34.21 40.67, 28.91 43.22, 23.61 43.25 C18.31 43.27, 10.39 41.09, 6.56 37.8 C2.73 34.51, 0.98 28.41, 0.65 23.48 C0.32 18.56, 2.09 11.79, 4.59 8.25 C7.09 4.71, 13.29 3.62, 15.65 2.27 C18 0.92, 18.2 0.25, 18.72 0.14" stroke="#000000" stroke-width="1" fill="none"></path></g><g stroke-linecap="round" transform="translate(272 152.5) rotate(0 24 21.5)"><path d="M14.55 1.65 C18.9 -0.27, 25.09 0.27, 30.08 1.41 C35.06 2.54, 41.51 4.87, 44.47 8.45 C47.44 12.03, 48.39 18.1, 47.89 22.86 C47.39 27.63, 45.25 33.63, 41.47 37.05 C37.68 40.47, 30.38 43.11, 25.2 43.38 C20.02 43.64, 14.36 41.56, 10.36 38.64 C6.36 35.73, 2.68 30.15, 1.18 25.89 C-0.32 21.64, -1.55 17.45, 1.37 13.12 C4.29 8.8, 15.23 2.21, 18.71 -0.04 C22.19 -2.29, 22.17 -0.75, 22.24 -0.38 M32.58 2.2 C37.17 2.91, 40.65 5.04, 43.21 8.89 C45.76 12.75, 48.53 20.4, 47.9 25.32 C47.27 30.25, 43.32 35.39, 39.43 38.42 C35.54 41.45, 29.51 43.3, 24.58 43.51 C19.66 43.71, 13.64 42.76, 9.88 39.66 C6.11 36.56, 3.03 29.57, 2 24.9 C0.96 20.23, 1.42 15.3, 3.69 11.67 C5.95 8.03, 11.2 4.99, 15.59 3.1 C19.97 1.2, 27.58 0.7, 29.98 0.27 C32.39 -0.16, 30.14 0.24, 30.02 0.51" stroke="#000000" stroke-width="1" fill="none"></path></g><g stroke-linecap="round"><g transform="translate(261 65) rotate(0 15.2058834447339 44.59976075094194)"><path d="M0.72 0.03 C5.69 15.2, 25.73 75.5, 30.77 90.2 M-0.36 -1 C4.44 13.94, 25.05 73.68, 30.23 88.7" stroke="#000000" stroke-width="1" fill="none"></path></g></g><g stroke-linecap="round"><g transform="translate(262 63) rotate(0 -18.527088675461698 46.13605228122323)"><path d="M1.14 0.71 C-5.16 16.15, -30.73 76.87, -37.16 92.23 M0.28 0.04 C-6.26 15.13, -31.74 75.07, -38.19 90.23" stroke="#000000" stroke-width="1" fill="none"></path></g></g><g stroke-linecap="round"><g transform="translate(251 176) rotate(0 11.555369352176797 0.7854310641508562)"><path d="M-1.07 -0.62 C2.83 -0.31, 20.04 0.51, 24.18 1.09 M0.57 1.67 C4.26 2.17, 19.61 2.27, 23.32 2.15" stroke="#000000" stroke-width="1" fill="none"></path></g></g><g stroke-linecap="round"><g transform="translate(307 153) rotate(0 7.261816743351517 -22.463981678821156)"><path d="M0.6 -0.71 C3.11 -8.5, 12.78 -38.94, 15.06 -46.46 M-0.54 1.53 C1.9 -6.11, 12.3 -37.5, 14.67 -45.16" stroke="#000000" stroke-width="1" fill="none"></path></g></g><g stroke-linecap="round"><g transform="translate(308 89) rotate(0 -47.606608086638175 3.164233513623472)"><path d="M1.03 1.05 C-15.05 1.9, -79.51 4.05, -95.54 4.84 M0.12 0.56 C-16.17 1.53, -80.32 4.69, -96.25 5.77" stroke="#000000" stroke-width="1" fill="none"></path></g></g><g stroke-linecap="round"><g transform="translate(196 77) rotate(0 21.01964383024722 -13.849669124670328)"><path d="M-0.22 -0.3 C7.26 -4.68, 36.48 -21.17, 43.83 -25.53 M-1.79 -1.5 C5.69 -6.31, 35.76 -23.42, 43.31 -27.4" stroke="#000000" stroke-width="1" fill="none"></path></g></g><g stroke-linecap="round"><g transform="translate(322 67) rotate(0 -17.788105993345425 -9.364404774829751)"><path d="M0.25 -0.29 C-5.67 -3.48, -29.9 -15.54, -35.83 -18.44 M-1.08 -1.48 C-6.59 -4.57, -27.68 -14.68, -33.55 -17.14" stroke="#000000" stroke-width="1" fill="none"></path></g></g><g stroke-linecap="round"><g transform="translate(188 119) rotate(0 10.373311733081891 19.640178740154937)"><path d="M-1.01 0.76 C2.59 7.12, 17.86 31.65, 21.76 38.11 M0.66 0.11 C4.06 6.61, 17.17 32.96, 20.68 39.17" stroke="#000000" stroke-width="1" fill="none"></path></g></g><g stroke-linecap="round"><g transform="translate(206 112) rotate(0 36.40702711511403 22.566892750412237)"><path d="M1.18 0.17 C13.35 7.52, 60.69 37.34, 72.47 44.94 M0.34 -0.79 C12.44 6.6, 59.99 37.95, 71.77 45.92" stroke="#000000" stroke-width="1" fill="none"></path></g></g><g stroke-linecap="round"><g transform="translate(235 156) rotate(0 39.635674869688216 -28.71836527955719)"><path d="M0.59 -0.86 C13.7 -10.66, 66.86 -49.07, 79.83 -58.74 M-0.56 1.3 C12.37 -8.37, 66.33 -47.7, 79.32 -57.58" stroke="#000000" stroke-width="1" fill="none"></path></g></g><g stroke-linecap="round"><g transform="translate(88 100) rotate(0 29.287916098907573 0.9378764645568936)"><path d="M-0.88 0.67 C9.07 0.79, 49.3 0.55, 59.46 0.93 M0.85 -0.02 C10.63 0.18, 48.48 1.72, 58.23 1.9" stroke="#000000" stroke-width="1" fill="none"></path></g><g transform="translate(88 100) rotate(0 29.287916098907573 0.9378764645568936)"><path d="M30.85 10.39 C35.81 9, 47.01 6.77, 58.28 2.21 M30.21 11.47 C41.55 7.58, 52.21 3.12, 59.09 1.96" stroke="#000000" stroke-width="1" fill="none"></path></g><g transform="translate(88 100) rotate(0 29.287916098907573 0.9378764645568936)"><path d="M31.48 -10.12 C36.3 -5.84, 47.33 -2.4, 58.28 2.21 M30.84 -9.04 C41.92 -4.88, 52.34 -1.3, 59.09 1.96" stroke="#000000" stroke-width="1" fill="none"></path></g></g><g transform="translate(312 74.5) rotate(0 19 12.5)"><text x="19" y="18" font-family="Virgil, Segoe UI Emoji" font-size="20px" fill="#000000" text-anchor="middle" style="white-space: pre;" direction="ltr">N</text></g><g transform="translate(243 30) rotate(0 19 12.5)"><text x="19" y="18" font-family="Virgil, Segoe UI Emoji" font-size="20px" fill="#000000" text-anchor="middle" style="white-space: pre;" direction="ltr">N</text></g><g transform="translate(277 161.5) rotate(0 19 12.5)"><text x="19" y="18" font-family="Virgil, Segoe UI Emoji" font-size="20px" fill="#000000" text-anchor="middle" style="white-space: pre;" direction="ltr">N</text></g><g transform="translate(205 164.5) rotate(0 19 12.5)"><text x="19" y="18" font-family="Virgil, Segoe UI Emoji" font-size="20px" fill="#000000" text-anchor="middle" style="white-space: pre;" direction="ltr">N</text></g><g transform="translate(169 84.5) rotate(0 19 12.5)"><text x="19" y="18" font-family="Virgil, Segoe UI Emoji" font-size="20px" fill="#000000" text-anchor="middle" style="white-space: pre;" direction="ltr">N</text></g><g stroke-linecap="round"><g transform="translate(387 95) rotate(0 61.26310895215727 -0.5712266116868676)"><path d="M-0.44 -0.4 C20.19 -0.38, 102.54 -0.41, 122.97 -0.41 M1.53 -1.66 C22.07 -1.48, 101.5 0.19, 122.01 0.52" stroke="#000000" stroke-width="1" fill="none"></path></g><g transform="translate(387 95) rotate(0 61.26310895215727 -0.5712266116868676)"><path d="M92.96 10.23 C98.28 6.72, 104.81 6.54, 120.69 -1.05 M93.58 10.94 C105.36 6.19, 116.66 3.33, 121.39 0.79" stroke="#000000" stroke-width="1" fill="none"></path></g><g transform="translate(387 95) rotate(0 61.26310895215727 -0.5712266116868676)"><path d="M93.34 -10.29 C98.48 -9.07, 104.92 -4.51, 120.69 -1.05 M93.96 -9.58 C105.58 -6.29, 116.73 -1.11, 121.39 0.79" stroke="#000000" stroke-width="1" fill="none"></path></g></g><g stroke-linecap="round" transform="translate(531 36) rotate(0 84.5 66)"><path d="M-1.31 0.93 C47.52 -0.21, 99.3 -1.91, 168.27 1.52 M-0.43 -0.67 C62.64 0.51, 125.17 0.58, 169.04 -0.4 M170.59 -0.79 C168.07 28.01, 169.31 60.91, 168.18 132.67 M168.83 0.47 C168.8 49.49, 167.82 98.98, 168.72 132.27 M168.31 130.78 C126.73 131.75, 85.01 132.17, 0.79 131.83 M168.11 131.21 C102.67 133.19, 35.45 133.13, -0.3 131.5 M0.19 130.49 C2.03 85.57, 0.84 40.68, -1.52 0.83 M-0.23 132.42 C-1.47 81, -1.26 28.4, -0.75 -0.48" stroke="#000000" stroke-width="1" fill="none"></path></g><g stroke-linecap="round" transform="translate(538.5 42) rotate(0 31.5 25.999999999999986)"><path d="M0.17 -1.66 C15.9 -1.07, 28.91 -0.81, 64.12 -0.78 M-0.12 0.52 C18.89 0.08, 37.9 0.16, 62.75 0.52 M61.21 0.87 C61.61 16.3, 64.56 35.17, 64.16 53.91 M63.2 -0.65 C63.07 9.49, 63.44 20.91, 63.85 52.16 M62.91 51.69 C49.88 53.37, 35.96 52.99, -1.89 52.39 M62.37 51.85 C38.77 51.66, 15.2 51.64, -0.5 51.18 M-0.26 52.45 C-0.45 36.11, -0.34 19.37, 0.54 0.23 M0.94 51.02 C-1.04 37.81, 0.73 24.86, -0.36 -0.04" stroke="#000000" stroke-width="1" fill="none"></path></g><g transform="translate(554.5 54) rotate(0 14.5 12.5)"><text x="0" y="18" font-family="Virgil, Segoe UI Emoji" font-size="20px" fill="#000000" text-anchor="start" style="white-space: pre;" direction="ltr">TX</text></g><g stroke-linecap="round" transform="translate(621.5 45) rotate(0 31.5 25.999999999999986)"><path d="M-1.69 -0.57 C18.42 0.99, 32.4 -2.14, 64.99 -0.17 M-0.06 0.74 C21.18 -0.46, 43.68 0.39, 63.75 -0.84 M63.72 -1.79 C62.66 13.96, 61.32 25.4, 64.29 51.05 M62.23 0.96 C62.98 18.08, 63.52 35.82, 62.23 51.88 M63.82 52.4 C36.61 50.72, 13.48 49.92, 0.85 53.99 M63.79 51.81 C50.87 52.93, 36.42 52.87, 0.73 52.87 M-0.41 50.26 C0.46 39.56, -1.87 26.1, -1 1.57 M0.12 52.79 C-1.01 39.67, -0.71 28.09, -0.52 0.62" stroke="#000000" stroke-width="1" fill="none"></path></g><g transform="translate(637.5 57) rotate(0 14.5 12.5)"><text x="0" y="18" font-family="Virgil, Segoe UI Emoji" font-size="20px" fill="#000000" text-anchor="start" style="white-space: pre;" direction="ltr">TX</text></g><g stroke-linecap="round" transform="translate(541.5 105) rotate(0 31.5 26)"><path d="M0.41 -1.21 C23.69 -1.69, 45.54 -0.06, 61.34 -0.87 M-0.74 -0.87 C25.4 1.11, 48.97 1.33, 62.57 0.16 M62.29 1.8 C62.83 15.58, 64.35 28.75, 64.07 53.3 M62.67 0.09 C63.02 14.2, 62.73 31.12, 64 52.26 M64.3 53.38 C47.73 53.33, 27.91 53.53, -1.69 50.87 M62.38 52.77 C43.4 50.68, 21.52 50.79, 0.8 51.23 M1.19 50.85 C-1.95 38.99, -2.19 28.45, 0.27 1.69 M0.98 51.67 C0.16 33.75, -0.07 15.95, 0.22 -0.37" stroke="#000000" stroke-width="1" fill="none"></path></g><g transform="translate(557.5 117) rotate(0 14.5 12.5)"><text x="0" y="18" font-family="Virgil, Segoe UI Emoji" font-size="20px" fill="#000000" text-anchor="start" style="white-space: pre;" direction="ltr">TX</text></g><g transform="translate(293 31) rotate(0 16.5 -8)" stroke="none"><path fill="#000000" d="M 1.55,-1.94 Q 1.55,-1.94 2.94,-0.72 4.34,0.48 5.15,1.39 5.97,2.30 6.97,1.59 7.98,0.88 9.30,-0.02 10.62,-0.94 11.62,-1.78 12.62,-2.63 13.97,-3.78 15.31,-4.94 16.76,-6.43 18.21,-7.92 19.80,-9.46 21.39,-11.00 22.57,-12.44 23.74,-13.88 24.84,-15.17 25.94,-16.46 26.97,-17.61 27.99,-18.76 28.69,-19.59 29.38,-20.41 30.22,-21.28 31.05,-22.16 31.29,-22.44 31.52,-22.72 31.84,-22.91 32.15,-23.10 32.51,-23.18 32.87,-23.26 33.23,-23.22 33.60,-23.18 33.93,-23.03 34.26,-22.87 34.53,-22.62 34.80,-22.37 34.97,-22.05 35.14,-21.72 35.20,-21.36 35.26,-21.00 35.20,-20.64 35.14,-20.28 34.97,-19.95 34.80,-19.63 34.54,-19.38 34.27,-19.12 33.94,-18.97 33.61,-18.81 33.24,-18.77 32.88,-18.73 32.52,-18.81 32.16,-18.89 31.85,-19.08 31.53,-19.27 31.29,-19.54 31.06,-19.82 30.92,-20.16 30.78,-20.50 30.76,-20.87 30.74,-21.24 30.84,-21.59 30.94,-21.94 31.14,-22.25 31.35,-22.55 31.64,-22.77 31.93,-22.99 32.28,-23.11 32.62,-23.23 32.99,-23.23 33.36,-23.23 33.70,-23.11 34.05,-23.00 34.34,-22.78 34.64,-22.56 34.84,-22.25 35.05,-21.95 35.15,-21.60 35.25,-21.24 35.23,-20.88 35.21,-20.51 35.07,-20.17 34.94,-19.83 34.94,-19.83 34.94,-19.83 32.94,-17.91 30.93,-15.99 29.89,-14.94 28.84,-13.90 27.77,-12.73 26.70,-11.57 25.48,-9.95 24.26,-8.33 22.91,-6.71 21.56,-5.09 20.17,-3.20 18.77,-1.32 17.46,0.05 16.16,1.42 15.00,2.46 13.83,3.50 12.76,4.32 11.68,5.14 10.62,5.99 9.55,6.84 8.38,7.20 7.20,7.55 5.55,7.12 3.90,6.70 2.65,5.40 1.40,4.11 -0.07,3.02 -1.55,1.94 -1.76,1.72 -1.97,1.51 -2.12,1.25 -2.27,0.99 -2.36,0.71 -2.45,0.42 -2.46,0.12 -2.48,-0.17 -2.42,-0.47 -2.36,-0.76 -2.24,-1.03 -2.11,-1.30 -1.92,-1.54 -1.74,-1.77 -1.50,-1.96 -1.26,-2.14 -0.99,-2.26 -0.71,-2.38 -0.42,-2.43 -0.12,-2.48 0.17,-2.46 0.47,-2.44 0.75,-2.35 1.04,-2.25 1.29,-2.10 1.55,-1.94 1.55,-1.94 L 1.55,-1.94 Z"></path></g><g transform="translate(340.5 126) rotate(0 16.5 -8)" stroke="none"><path fill="#000000" d="M 1.55,-1.94 Q 1.55,-1.94 2.94,-0.72 4.34,0.48 5.15,1.39 5.97,2.30 6.97,1.59 7.98,0.88 9.30,-0.02 10.62,-0.94 11.62,-1.78 12.62,-2.63 13.97,-3.78 15.31,-4.94 16.76,-6.43 18.21,-7.92 19.80,-9.46 21.39,-11.00 22.57,-12.44 23.74,-13.88 24.84,-15.17 25.94,-16.46 26.97,-17.61 27.99,-18.76 29.52,-20.28 31.04,-21.80 31.26,-22.06 31.48,-22.32 31.77,-22.49 32.06,-22.67 32.39,-22.74 32.72,-22.81 33.05,-22.78 33.39,-22.74 33.70,-22.60 34.00,-22.46 34.25,-22.23 34.50,-22.00 34.65,-21.70 34.81,-21.40 34.87,-21.07 34.92,-20.73 34.87,-20.40 34.82,-20.07 34.66,-19.77 34.50,-19.47 34.26,-19.24 34.01,-19.00 33.70,-18.86 33.40,-18.72 33.06,-18.68 32.73,-18.64 32.40,-18.72 32.07,-18.79 31.78,-18.96 31.49,-19.13 31.27,-19.39 31.05,-19.65 30.92,-19.96 30.80,-20.28 30.78,-20.61 30.76,-20.95 30.85,-21.28 30.94,-21.60 31.13,-21.88 31.32,-22.16 31.59,-22.37 31.85,-22.57 32.17,-22.68 32.49,-22.79 32.83,-22.79 33.17,-22.79 33.49,-22.68 33.81,-22.58 34.08,-22.37 34.35,-22.17 34.54,-21.89 34.73,-21.61 34.82,-21.28 34.91,-20.96 34.89,-20.62 34.88,-20.28 34.75,-19.97 34.63,-19.66 34.63,-19.66 34.63,-19.66 32.78,-17.82 30.93,-15.99 29.89,-14.94 28.84,-13.90 27.77,-12.73 26.70,-11.57 25.48,-9.95 24.26,-8.33 22.91,-6.71 21.56,-5.09 20.17,-3.20 18.77,-1.32 17.46,0.05 16.16,1.42 15.00,2.46 13.83,3.50 12.76,4.32 11.68,5.14 10.62,5.99 9.55,6.84 8.38,7.20 7.20,7.55 5.55,7.12 3.90,6.70 2.65,5.40 1.40,4.11 -0.07,3.02 -1.55,1.94 -1.76,1.72 -1.97,1.51 -2.12,1.25 -2.27,0.99 -2.36,0.71 -2.45,0.42 -2.46,0.12 -2.48,-0.17 -2.42,-0.47 -2.36,-0.76 -2.24,-1.03 -2.11,-1.30 -1.92,-1.54 -1.74,-1.77 -1.50,-1.96 -1.26,-2.14 -0.99,-2.26 -0.71,-2.38 -0.42,-2.43 -0.12,-2.48 0.17,-2.46 0.47,-2.44 0.75,-2.35 1.04,-2.25 1.29,-2.10 1.55,-1.94 1.55,-1.94 L 1.55,-1.94 Z"></path></g><g transform="translate(306.5 204) rotate(0 16.5 -8)" stroke="none"><path fill="#000000" d="M 1.55,-1.94 Q 1.55,-1.94 2.94,-0.72 4.34,0.48 5.15,1.39 5.97,2.30 6.97,1.59 7.98,0.88 9.30,-0.02 10.62,-0.94 11.62,-1.78 12.62,-2.63 13.97,-3.78 15.31,-4.94 16.76,-6.43 18.21,-7.92 19.80,-9.46 21.39,-11.00 22.57,-12.44 23.74,-13.88 24.84,-15.17 25.94,-16.46 26.97,-17.61 27.99,-18.76 29.52,-20.28 31.04,-21.80 31.26,-22.06 31.48,-22.32 31.77,-22.49 32.06,-22.67 32.39,-22.74 32.72,-22.81 33.05,-22.78 33.39,-22.74 33.70,-22.60 34.00,-22.46 34.25,-22.23 34.50,-22.00 34.65,-21.70 34.81,-21.40 34.87,-21.07 34.92,-20.73 34.87,-20.40 34.82,-20.07 34.66,-19.77 34.50,-19.47 34.26,-19.24 34.01,-19.00 33.70,-18.86 33.40,-18.72 33.06,-18.68 32.73,-18.64 32.40,-18.72 32.07,-18.79 31.78,-18.96 31.49,-19.13 31.27,-19.39 31.05,-19.65 30.92,-19.96 30.80,-20.28 30.78,-20.61 30.76,-20.95 30.85,-21.28 30.94,-21.60 31.13,-21.88 31.32,-22.16 31.59,-22.37 31.85,-22.57 32.17,-22.68 32.49,-22.79 32.83,-22.79 33.17,-22.79 33.49,-22.68 33.81,-22.58 34.08,-22.37 34.35,-22.17 34.54,-21.89 34.73,-21.61 34.82,-21.28 34.91,-20.96 34.89,-20.62 34.88,-20.28 34.75,-19.97 34.63,-19.66 34.63,-19.66 34.63,-19.66 32.78,-17.82 30.93,-15.99 29.89,-14.94 28.84,-13.90 27.77,-12.73 26.70,-11.57 25.48,-9.95 24.26,-8.33 22.91,-6.71 21.56,-5.09 20.17,-3.20 18.77,-1.32 17.46,0.05 16.16,1.42 15.00,2.46 13.83,3.50 12.76,4.32 11.68,5.14 10.62,5.99 9.55,6.84 8.38,7.20 7.20,7.55 5.55,7.12 3.90,6.70 2.65,5.40 1.40,4.11 -0.07,3.02 -1.55,1.94 -1.76,1.72 -1.97,1.51 -2.12,1.25 -2.27,0.99 -2.36,0.71 -2.45,0.42 -2.46,0.12 -2.48,-0.17 -2.42,-0.47 -2.36,-0.76 -2.24,-1.03 -2.11,-1.30 -1.92,-1.54 -1.74,-1.77 -1.50,-1.96 -1.26,-2.14 -0.99,-2.26 -0.71,-2.38 -0.42,-2.43 -0.12,-2.48 0.17,-2.46 0.47,-2.44 0.75,-2.35 1.04,-2.25 1.29,-2.10 1.55,-1.94 1.55,-1.94 L 1.55,-1.94 Z"></path></g><g transform="translate(223.5 212) rotate(0 16.5 -8)" stroke="none"><path fill="#000000" d="M 1.55,-1.94 Q 1.55,-1.94 2.94,-0.72 4.34,0.48 5.15,1.39 5.97,2.30 6.97,1.59 7.98,0.88 9.30,-0.02 10.62,-0.94 11.62,-1.78 12.62,-2.63 13.97,-3.78 15.31,-4.94 16.76,-6.43 18.21,-7.92 19.80,-9.46 21.39,-11.00 22.57,-12.44 23.74,-13.88 24.84,-15.17 25.94,-16.46 26.97,-17.61 27.99,-18.76 29.52,-20.28 31.04,-21.80 31.26,-22.06 31.48,-22.32 31.77,-22.49 32.06,-22.67 32.39,-22.74 32.72,-22.81 33.05,-22.78 33.39,-22.74 33.70,-22.60 34.00,-22.46 34.25,-22.23 34.50,-22.00 34.65,-21.70 34.81,-21.40 34.87,-21.07 34.92,-20.73 34.87,-20.40 34.82,-20.07 34.66,-19.77 34.50,-19.47 34.26,-19.24 34.01,-19.00 33.70,-18.86 33.40,-18.72 33.06,-18.68 32.73,-18.64 32.40,-18.72 32.07,-18.79 31.78,-18.96 31.49,-19.13 31.27,-19.39 31.05,-19.65 30.92,-19.96 30.80,-20.28 30.78,-20.61 30.76,-20.95 30.85,-21.28 30.94,-21.60 31.13,-21.88 31.32,-22.16 31.59,-22.37 31.85,-22.57 32.17,-22.68 32.49,-22.79 32.83,-22.79 33.17,-22.79 33.49,-22.68 33.81,-22.58 34.08,-22.37 34.35,-22.17 34.54,-21.89 34.73,-21.61 34.82,-21.28 34.91,-20.96 34.89,-20.62 34.88,-20.28 34.75,-19.97 34.63,-19.66 34.63,-19.66 34.63,-19.66 32.78,-17.82 30.93,-15.99 29.89,-14.94 28.84,-13.90 27.77,-12.73 26.70,-11.57 25.48,-9.95 24.26,-8.33 22.91,-6.71 21.56,-5.09 20.17,-3.20 18.77,-1.32 17.46,0.05 16.16,1.42 15.00,2.46 13.83,3.50 12.76,4.32 11.68,5.14 10.62,5.99 9.55,6.84 8.38,7.20 7.20,7.55 5.55,7.12 3.90,6.70 2.65,5.40 1.40,4.11 -0.07,3.02 -1.55,1.94 -1.76,1.72 -1.97,1.51 -2.12,1.25 -2.27,0.99 -2.36,0.71 -2.45,0.42 -2.46,0.12 -2.48,-0.17 -2.42,-0.47 -2.36,-0.76 -2.24,-1.03 -2.11,-1.30 -1.92,-1.54 -1.74,-1.77 -1.50,-1.96 -1.26,-2.14 -0.99,-2.26 -0.71,-2.38 -0.42,-2.43 -0.12,-2.48 0.17,-2.46 0.47,-2.44 0.75,-2.35 1.04,-2.25 1.29,-2.10 1.55,-1.94 1.55,-1.94 L 1.55,-1.94 Z"></path></g><g stroke-linecap="round" transform="translate(619.5 105) rotate(0 31.5 26)"><path d="M0.62 1.88 C12.72 0.73, 28.74 0.39, 63.22 -1.91 M0.39 0.42 C23.83 -0.35, 47.25 -0.02, 62.72 -0.78 M61.46 1.01 C62.04 18.23, 64.14 35.97, 62.02 52.26 M62.57 0.25 C63.29 16.29, 62.96 30.58, 63.19 52.29 M64.02 51.15 C39.87 51.44, 12.1 53.99, 0.62 51.87 M62.11 51.53 C43.31 52.53, 23.8 51.81, 0.35 52.77 M-1.73 50.95 C-1.89 32.89, -1 14.83, 1.43 0.19 M-0.02 52.33 C0.26 37.22, 1.06 21.6, 0.91 0.24" stroke="#2b8a3e" stroke-width="1" fill="none"></path></g><g transform="translate(635.5 117) rotate(0 14.5 12.5)"><text x="0" y="18" font-family="Virgil, Segoe UI Emoji" font-size="20px" fill="#000000" text-anchor="start" style="white-space: pre;" direction="ltr">TX</text></g></svg>